<svg width="418" height="93" viewBox="0 0 418 93" fill="none" xmlns="http://www.w3.org/2000/svg">
<path d="M2.30616 76.4105L33.0736 21.8602M2.30616 76.4105L6.51491 83.0682M2.30616 76.4105L13.0457 71.2561M33.0736 21.8602L13.0457 71.2561M33.0736 21.8602L35.7855 30.6279M33.0736 21.8602H40.6928M40.6928 21.8602L72.331 76.4105M40.6928 21.8602L39.0964 41.3322M40.6928 21.8602L35.7855 30.6279M72.331 76.4105L68.4851 83.0682M72.331 76.4105L53.6819 71.2561M72.331 76.4105H57.2376M72.331 76.4105L39.0964 41.3322M68.4851 83.0682H6.51491M68.4851 83.0682L57.2376 76.4105M6.51491 83.0682L13.0457 71.2561M6.51491 83.0682L20.9553 71.2561M6.51491 83.0682L57.2376 76.4105M13.0457 71.2561L39.0964 41.3322M13.0457 71.2561L35.7855 30.6279M13.0457 71.2561H20.9553M39.0964 41.3322L20.9553 71.2561M39.0964 41.3322L53.6819 71.2561M39.0964 41.3322L35.7855 30.6279M20.9553 71.2561H53.6819M20.9553 71.2561L57.2376 76.4105M53.6819 71.2561L57.2376 76.4105M38 40.5L39 43L41 41H39.5L40.5 40.5V40M20.5 71.5L21 72.5L22.5 70.5M54 69.5L55 71L53 72L52.5 71.5M55.5 77L57 78L58 77.5H58.5V75.5H57V77.5M71 76.5L72.5 78L73.5 76V75.5M97 0V92.5M34.3797 21.717C34.3797 22.3891 33.8274 22.934 33.1461 22.934C32.4648 22.934 31.9125 22.3891 31.9125 21.717C31.9125 21.0449 32.4648 20.5 33.1461 20.5C33.8274 20.5 34.3797 21.0449 34.3797 21.717ZM3.4672 76.4105C3.4672 77.0826 2.9149 77.6275 2.2336 77.6275C1.5523 77.6275 1 77.0826 1 76.4105C1 75.7384 1.5523 75.1935 2.2336 75.1935C2.9149 75.1935 3.4672 75.7384 3.4672 76.4105ZM7.67594 83.283C7.67594 83.9551 7.12364 84.5 6.44235 84.5C5.76105 84.5 5.20875 83.9551 5.20875 83.283C5.20875 82.6109 5.76105 82.066 6.44235 82.066C7.12364 82.066 7.67594 82.6109 7.67594 83.283ZM14.3519 71.113C14.3519 71.7851 13.7996 72.33 13.1183 72.33C12.437 72.33 11.8847 71.7851 11.8847 71.113C11.8847 70.4408 12.437 69.896 13.1183 69.896C13.7996 69.896 14.3519 70.4408 14.3519 71.113ZM69.6461 82.9966C69.6461 83.6688 69.0938 84.2136 68.4125 84.2136C67.7312 84.2136 67.1789 83.6688 67.1789 82.9966C67.1789 82.3245 67.7312 81.7796 68.4125 81.7796C69.0938 81.7796 69.6461 82.3245 69.6461 82.9966ZM55.4235 70.8982C55.4235 71.8471 54.6437 72.6163 53.6819 72.6163C52.7201 72.6163 51.9404 71.8471 51.9404 70.8982C51.9404 69.9493 52.7201 69.1801 53.6819 69.1801C54.6437 69.1801 55.4235 69.9493 55.4235 70.8982ZM59.3419 76.4821C59.3419 77.6682 58.3673 78.6298 57.165 78.6298C55.9627 78.6298 54.9881 77.6682 54.9881 76.4821C54.9881 75.296 55.9627 74.3345 57.165 74.3345C58.3673 74.3345 59.3419 75.296 59.3419 76.4821ZM74 76.4821C74 77.3519 73.2853 78.0571 72.4036 78.0571C71.5219 78.0571 70.8072 77.3519 70.8072 76.4821C70.8072 75.6123 71.5219 74.9072 72.4036 74.9072C73.2853 74.9072 74 75.6123 74 76.4821ZM22.9145 71.113C22.9145 72.0223 22.1673 72.7595 21.2455 72.7595C20.3238 72.7595 19.5765 72.0223 19.5765 71.113C19.5765 70.2036 20.3238 69.4664 21.2455 69.4664C22.1673 69.4664 22.9145 70.2036 22.9145 71.113ZM41.9264 21.717C41.9264 22.3891 41.3741 22.934 40.6928 22.934C40.0115 22.934 39.4592 22.3891 39.4592 21.717C39.4592 21.0449 40.0115 20.5 40.6928 20.5C41.3741 20.5 41.9264 21.0449 41.9264 21.717ZM41.2008 41.189C41.2008 42.4147 40.1937 43.4083 38.9513 43.4083C37.7089 43.4083 36.7018 42.4147 36.7018 41.189C36.7018 39.9634 37.7089 38.9698 38.9513 38.9698C40.1937 38.9698 41.2008 39.9634 41.2008 41.189ZM20.3022 71.2899C20.3511 70.7746 20.6103 69.8553 21.2557 70.3005C22.0626 70.8571 22.4293 72.5267 21.4758 71.9083C20.7129 71.4136 20.3755 71.2899 20.3022 71.2899ZM12.7555 71.2934C12.784 70.9763 12.9352 70.4106 13.3117 70.6846C13.7823 71.0271 13.9963 72.0545 13.4401 71.674C12.9951 71.3696 12.7983 71.2934 12.7555 71.2934ZM1.43539 76.4478C1.46391 76.1307 1.61509 75.565 1.99161 75.839C2.46227 76.1814 2.6762 77.2089 2.11998 76.8283C1.67499 76.5239 1.47817 76.4478 1.43539 76.4478ZM5.93439 83.4635C5.96292 83.1464 6.1141 82.5806 6.49062 82.8546C6.96127 83.1971 7.17521 84.2245 6.61898 83.844C6.174 83.5396 5.97718 83.4635 5.93439 83.4635ZM52.8111 71.2319C52.86 70.677 53.1192 69.687 53.7647 70.1664C54.5715 70.7658 54.9382 72.5638 53.9847 71.8979C53.2219 71.3651 52.8845 71.2319 52.8111 71.2319ZM67.7594 83.1464C67.7961 82.7103 67.9905 81.9325 68.4746 82.3092C69.0797 82.7801 69.3548 84.1928 68.6396 83.6696C68.0675 83.251 67.8144 83.1464 67.7594 83.1464ZM71.8231 76.5602C71.8597 76.1242 72.0541 75.3463 72.5382 75.7231C73.1433 76.194 73.4184 77.6067 72.7032 77.0835C72.1311 76.6649 71.8781 76.5602 71.8231 76.5602ZM40.0398 21.8667C40.0764 21.4307 40.2708 20.6528 40.7549 21.0295C41.36 21.5005 41.6351 22.9132 40.9199 22.39C40.3478 21.9714 40.0948 21.8667 40.0398 21.8667ZM32.3479 21.8667C32.3846 21.4307 32.579 20.6528 33.0631 21.0295C33.6682 21.5005 33.9432 22.9132 33.2281 22.39C32.656 21.9714 32.4029 21.8667 32.3479 21.8667ZM37.4023 41.9087C37.5 41 38.1085 38.8509 39.2381 39.6044C40.65 40.5462 40.4498 43.1443 38.7811 42.0978C37.4461 41.2606 37.5307 41.9087 37.4023 41.9087ZM55.852 76.0248C56.372 75.3432 57.517 74.2619 57.9363 75.3891C58.4604 76.798 57.1663 79.166 56.5119 77.5559C55.9884 76.2678 55.9446 76.0822 55.852 76.0248Z" stroke="white" stroke-linejoin="round"/>
<path d="M114.44 49V22.32H126.6V25.12H117.4V49H114.44Z" fill="white"/>
<path d="M157.28 22.32V25.12H146.4V33.04H156.96V35.84H146.4V46.2H157.28V49H143.44V22.32H157.28Z" fill="white"/>
<path d="M280.28 22.32V25.12H269.4V33.04H279.96V35.84H269.4V46.2H280.28V49H266.44V22.32H280.28Z" fill="white"/>
<path d="M311.48 25.12H305V49H302.04V25.12H295.56V22.32H311.48V25.12Z" fill="white"/>
<path d="M328.44 22.32H333.28C336.32 22.32 338.56 22.9467 340 24.2C341.627 25.5867 342.44 27.4933 342.44 29.92C342.44 32 341.733 33.7733 340.32 35.24C338.933 36.68 336.827 37.4 334 37.4H331.4V49H328.44V22.32ZM331.4 25.12V34.6H333.84C335.6 34.6 336.973 34.1733 337.96 33.32C338.973 32.4667 339.48 31.28 339.48 29.76C339.48 26.6667 337.52 25.12 333.6 25.12H331.4Z" fill="white"/>
<path d="M378 49V28.64L359.44 50.2V22.32H362.4V42.76L380.96 21.2V49H378Z" fill="white"/>
<path d="M398.2 49L406.04 37.16C404.227 36.9733 402.733 36.4133 401.56 35.48C400.013 34.2267 399.24 32.4133 399.24 30.04C399.24 27.8533 399.853 26.08 401.08 24.72C402.52 23.12 404.733 22.32 407.72 22.32H413.96V49H411V37.32H409.4L401.8 49H398.2ZM411 25.12H408.12C405.987 25.12 404.467 25.5867 403.56 26.52C402.707 27.4267 402.28 28.5733 402.28 29.96C402.28 31.5333 402.787 32.7333 403.8 33.56C404.76 34.3067 406.12 34.68 407.88 34.68H411V25.12Z" fill="white"/>
<path d="M197.72 45.52C195.053 48.16 191.773 49.48 187.88 49.48C183.987 49.48 180.693 48.16 178 45.52C175.333 42.88 174 39.6 174 35.68C174 31.7333 175.347 28.4533 178.04 25.84C180.733 23.2 184.013 21.88 187.88 21.88C191.747 21.88 195.027 23.2 197.72 25.84C200.413 28.4533 201.76 31.7333 201.76 35.68C201.76 39.6 200.413 42.88 197.72 45.52ZM195.56 27.88C193.453 25.7467 190.893 24.68 187.88 24.68C184.867 24.68 182.307 25.7467 180.2 27.88C178.093 30.0133 177.04 32.6133 177.04 35.68C177.04 38.7467 178.093 41.3467 180.2 43.48C182.307 45.6133 184.867 46.68 187.88 46.68C190.893 46.68 193.453 45.6133 195.56 43.48C197.667 41.3467 198.72 38.7467 198.72 35.68C198.72 32.6133 197.667 30.0133 195.56 27.88Z" fill="white"/>
<path d="M221.56 49H218.52L222.96 20.84L233.2 43.36L243.64 20.8L247.8 49H244.76L242.24 30.44L233.16 50.12L224.2 30.44L221.56 49Z" fill="white"/>
<path d="M123.16 67.624H120.04V76H118.312V67.624H115.192V66.04H123.16V67.624ZM132.685 74.8C131.693 75.792 130.437 76.288 128.917 76.288C127.397 76.288 126.133 75.792 125.125 74.8C124.133 73.808 123.637 72.56 123.637 71.056C123.637 69.536 124.133 68.28 125.125 67.288C126.133 66.296 127.397 65.8 128.917 65.8C130.437 65.8 131.693 66.296 132.685 67.288C133.693 68.28 134.197 69.536 134.197 71.056C134.197 72.56 133.693 73.808 132.685 74.8ZM131.389 68.32C130.717 67.664 129.893 67.336 128.917 67.336C127.941 67.336 127.109 67.672 126.421 68.344C125.749 69 125.413 69.904 125.413 71.056C125.413 72.208 125.757 73.112 126.445 73.768C127.133 74.424 127.957 74.752 128.917 74.752C129.877 74.752 130.701 74.424 131.389 73.768C132.077 73.112 132.421 72.208 132.421 71.056C132.421 69.888 132.077 68.976 131.389 68.32ZM138.095 74.608V81.52H136.367V66.04H138.095V67.432C138.975 66.344 140.111 65.8 141.503 65.8C142.991 65.8 144.167 66.328 145.031 67.384C145.911 68.424 146.351 69.656 146.351 71.08C146.351 72.52 145.919 73.752 145.055 74.776C144.191 75.784 143.031 76.288 141.575 76.288C140.119 76.288 138.959 75.728 138.095 74.608ZM141.335 74.752C142.311 74.752 143.095 74.4 143.687 73.696C144.279 72.976 144.575 72.104 144.575 71.08C144.575 69.928 144.247 69.016 143.591 68.344C142.935 67.672 142.175 67.336 141.311 67.336C140.447 67.336 139.679 67.672 139.007 68.344C138.335 69.016 137.999 69.92 137.999 71.056C137.999 72.096 138.303 72.976 138.911 73.696C139.535 74.4 140.343 74.752 141.335 74.752ZM148.52 76V66.04H154.424V67.624H150.248V76H148.52ZM163.589 74.8C162.597 75.792 161.341 76.288 159.821 76.288C158.301 76.288 157.037 75.792 156.029 74.8C155.037 73.808 154.541 72.56 154.541 71.056C154.541 69.536 155.037 68.28 156.029 67.288C157.037 66.296 158.301 65.8 159.821 65.8C161.341 65.8 162.597 66.296 163.589 67.288C164.597 68.28 165.101 69.536 165.101 71.056C165.101 72.56 164.597 73.808 163.589 74.8ZM162.293 68.32C161.621 67.664 160.797 67.336 159.821 67.336C158.845 67.336 158.013 67.672 157.325 68.344C156.653 69 156.317 69.904 156.317 71.056C156.317 72.208 156.661 73.112 157.349 73.768C158.037 74.424 158.861 74.752 159.821 74.752C160.781 74.752 161.605 74.424 162.293 73.768C162.981 73.112 163.325 72.208 163.325 71.056C163.325 69.888 162.981 68.976 162.293 68.32ZM167.271 66.04H171.039C171.951 66.04 172.647 66.232 173.127 66.616C173.703 67.08 173.991 67.704 173.991 68.488C173.991 69.352 173.631 70.016 172.911 70.48C173.407 70.608 173.823 70.832 174.159 71.152C174.687 71.664 174.951 72.304 174.951 73.072C174.951 74.032 174.607 74.784 173.919 75.328C173.327 75.776 172.543 76 171.567 76H167.271V66.04ZM168.999 70.096H170.823C171.287 70.096 171.655 70 171.927 69.808C172.247 69.568 172.407 69.224 172.407 68.776C172.407 68.376 172.247 68.056 171.927 67.816C171.687 67.656 171.223 67.576 170.535 67.576H168.999V70.096ZM168.999 74.464H171.135C171.871 74.464 172.391 74.352 172.695 74.128C173.079 73.84 173.271 73.472 173.271 73.024C173.271 72.544 173.103 72.168 172.767 71.896C172.463 71.656 171.943 71.536 171.207 71.536H168.999V74.464ZM185.528 74.8C184.536 75.792 183.28 76.288 181.76 76.288C180.24 76.288 178.976 75.792 177.968 74.8C176.976 73.808 176.48 72.56 176.48 71.056C176.48 69.536 176.976 68.28 177.968 67.288C178.976 66.296 180.24 65.8 181.76 65.8C183.28 65.8 184.536 66.296 185.528 67.288C186.536 68.28 187.04 69.536 187.04 71.056C187.04 72.56 186.536 73.808 185.528 74.8ZM184.232 68.32C183.56 67.664 182.736 67.336 181.76 67.336C180.784 67.336 179.952 67.672 179.264 68.344C178.592 69 178.256 69.904 178.256 71.056C178.256 72.208 178.6 73.112 179.288 73.768C179.976 74.424 180.8 74.752 181.76 74.752C182.72 74.752 183.544 74.424 184.232 73.768C184.92 73.112 185.264 72.208 185.264 71.056C185.264 69.888 184.92 68.976 184.232 68.32ZM188.777 71.776V70H194.057V71.776H188.777ZM204.217 66.76V68.824C203.433 67.832 202.393 67.336 201.097 67.336C200.121 67.336 199.289 67.672 198.601 68.344C197.913 69 197.569 69.904 197.569 71.056C197.569 72.208 197.913 73.112 198.601 73.768C199.289 74.424 200.113 74.752 201.073 74.752C202.353 74.752 203.425 74.232 204.289 73.192V75.256C203.345 75.944 202.289 76.288 201.121 76.288C199.569 76.288 198.289 75.8 197.281 74.824C196.289 73.832 195.793 72.584 195.793 71.08C195.793 69.56 196.297 68.304 197.305 67.312C198.313 66.304 199.585 65.8 201.121 65.8C202.273 65.8 203.305 66.12 204.217 66.76ZM212.988 67.624H209.868V76H208.14V67.624H205.02V66.04H212.988V67.624ZM216.052 74.608V81.52H214.324V66.04H216.052V67.432C216.932 66.344 218.068 65.8 219.46 65.8C220.948 65.8 222.124 66.328 222.988 67.384C223.868 68.424 224.308 69.656 224.308 71.08C224.308 72.52 223.876 73.752 223.012 74.776C222.148 75.784 220.988 76.288 219.532 76.288C218.076 76.288 216.916 75.728 216.052 74.608ZM219.292 74.752C220.268 74.752 221.052 74.4 221.644 73.696C222.236 72.976 222.532 72.104 222.532 71.08C222.532 69.928 222.204 69.016 221.548 68.344C220.892 67.672 220.132 67.336 219.268 67.336C218.404 67.336 217.636 67.672 216.964 68.344C216.292 69.016 215.956 69.92 215.956 71.056C215.956 72.096 216.26 72.976 216.868 73.696C217.492 74.4 218.3 74.752 219.292 74.752ZM234.901 74.8C233.909 75.792 232.653 76.288 231.133 76.288C229.613 76.288 228.349 75.792 227.341 74.8C226.349 73.808 225.853 72.56 225.853 71.056C225.853 69.536 226.349 68.28 227.341 67.288C228.349 66.296 229.613 65.8 231.133 65.8C232.653 65.8 233.909 66.296 234.901 67.288C235.909 68.28 236.413 69.536 236.413 71.056C236.413 72.56 235.909 73.808 234.901 74.8ZM233.605 68.32C232.933 67.664 232.109 67.336 231.133 67.336C230.157 67.336 229.325 67.672 228.637 68.344C227.965 69 227.629 69.904 227.629 71.056C227.629 72.208 227.973 73.112 228.661 73.768C229.349 74.424 230.173 74.752 231.133 74.752C232.093 74.752 232.917 74.424 233.605 73.768C234.293 73.112 234.637 72.208 234.637 71.056C234.637 69.888 234.293 68.976 233.605 68.32ZM238.583 66.04H240.311V72.616L247.127 65.272V76H245.399V69.352L238.583 76.696V66.04ZM256.443 67.624H253.323V76H251.595V67.624H248.475V66.04H256.443V67.624ZM264.937 72.664L266.377 73.456C266.041 74.096 265.633 74.632 265.153 75.064C264.241 75.88 263.137 76.288 261.841 76.288C260.497 76.288 259.337 75.856 258.361 74.992C257.401 74.112 256.921 72.808 256.921 71.08C256.921 69.56 257.353 68.304 258.217 67.312C259.097 66.304 260.273 65.8 261.745 65.8C263.409 65.8 264.665 66.408 265.513 67.624C266.185 68.584 266.497 69.832 266.449 71.368H258.697C258.713 72.376 259.025 73.192 259.633 73.816C260.241 74.44 260.985 74.752 261.865 74.752C262.649 74.752 263.329 74.512 263.905 74.032C264.353 73.648 264.697 73.192 264.937 72.664ZM258.817 69.928H264.673C264.529 69.144 264.185 68.52 263.641 68.056C263.113 67.576 262.481 67.336 261.745 67.336C261.025 67.336 260.385 67.584 259.825 68.08C259.281 68.56 258.945 69.176 258.817 69.928ZM276.156 66.04V76H274.428V67.624H270.876V72.112C270.876 73.408 270.62 74.368 270.108 74.992C269.532 75.696 268.732 76.048 267.708 76.048C267.58 76.048 267.404 76.032 267.18 76V74.416C267.34 74.448 267.468 74.464 267.564 74.464C268.124 74.464 268.54 74.248 268.812 73.816C269.036 73.464 269.148 72.896 269.148 72.112V66.04H276.156ZM278.944 76V66.04H280.672V69.856H282.448C283.824 69.856 284.832 70.184 285.472 70.84C285.984 71.352 286.24 72.048 286.24 72.928C286.24 73.856 285.944 74.6 285.352 75.16C284.76 75.72 283.784 76 282.424 76H278.944ZM280.672 74.464H282.28C283 74.464 283.512 74.376 283.816 74.2C284.248 73.912 284.464 73.488 284.464 72.928C284.464 72.352 284.256 71.936 283.84 71.68C283.552 71.488 283.04 71.392 282.304 71.392H280.672V74.464ZM288.074 76V66.04H289.802V70.12H294.506V66.04H296.234V76H294.506V71.704H289.802V76H288.074ZM306.64 67.456V66.04H308.368V76H306.64V74.608C305.776 75.728 304.64 76.288 303.232 76.288C301.888 76.288 300.744 75.824 299.8 74.896C298.856 73.968 298.384 72.672 298.384 71.008C298.384 69.376 298.848 68.104 299.776 67.192C300.72 66.264 301.872 65.8 303.232 65.8C304.672 65.8 305.808 66.352 306.64 67.456ZM303.424 67.336C302.512 67.336 301.736 67.664 301.096 68.32C300.472 68.96 300.16 69.856 300.16 71.008C300.16 72.112 300.448 73.016 301.024 73.72C301.616 74.408 302.416 74.752 303.424 74.752C304.432 74.752 305.232 74.392 305.824 73.672C306.432 72.952 306.736 72.072 306.736 71.032C306.736 69.848 306.4 68.936 305.728 68.296C305.056 67.656 304.288 67.336 303.424 67.336ZM310.008 76L313.104 71.896C313.008 71.896 312.872 71.88 312.696 71.848C312.536 71.816 312.296 71.736 311.976 71.608C311.656 71.48 311.392 71.312 311.184 71.104C310.656 70.608 310.392 69.944 310.392 69.112C310.392 68.168 310.688 67.424 311.28 66.88C311.872 66.32 312.848 66.04 314.208 66.04H317.688V76H315.96V71.992H314.904L312.072 76H310.008ZM315.96 70.552V67.576H314.352C313.6 67.576 313.08 67.664 312.792 67.84C312.376 68.112 312.168 68.52 312.168 69.064C312.168 69.608 312.376 70.008 312.792 70.264C313.096 70.456 313.608 70.552 314.328 70.552H315.96ZM325.599 66.04H327.327V70.12L331.359 66.04H333.471L329.151 70.48L333.999 76H331.743L327.855 71.632L327.327 72.136V76H325.599V66.04ZM343.199 74.8C342.207 75.792 340.951 76.288 339.431 76.288C337.911 76.288 336.647 75.792 335.639 74.8C334.647 73.808 334.151 72.56 334.151 71.056C334.151 69.536 334.647 68.28 335.639 67.288C336.647 66.296 337.911 65.8 339.431 65.8C340.951 65.8 342.207 66.296 343.199 67.288C344.207 68.28 344.711 69.536 344.711 71.056C344.711 72.56 344.207 73.808 343.199 74.8ZM341.903 68.32C341.231 67.664 340.407 67.336 339.431 67.336C338.455 67.336 337.623 67.672 336.935 68.344C336.263 69 335.927 69.904 335.927 71.056C335.927 72.208 336.271 73.112 336.959 73.768C337.647 74.424 338.471 74.752 339.431 74.752C340.391 74.752 341.215 74.424 341.903 73.768C342.591 73.112 342.935 72.208 342.935 71.056C342.935 69.888 342.591 68.976 341.903 68.32ZM345.729 76L348.129 65.272L352.257 73.384L356.289 65.272L358.689 76H356.913L355.593 69.832L352.209 76.696L348.777 69.832L347.505 76H345.729ZM360.323 66.04H368.339V76H366.611V67.624H362.051V76H360.323V66.04ZM378.748 67.456V66.04H380.476V76H378.748V74.608C377.884 75.728 376.748 76.288 375.34 76.288C373.996 76.288 372.852 75.824 371.908 74.896C370.964 73.968 370.492 72.672 370.492 71.008C370.492 69.376 370.956 68.104 371.884 67.192C372.828 66.264 373.98 65.8 375.34 65.8C376.78 65.8 377.916 66.352 378.748 67.456ZM375.532 67.336C374.62 67.336 373.844 67.664 373.204 68.32C372.58 68.96 372.268 69.856 372.268 71.008C372.268 72.112 372.556 73.016 373.132 73.72C373.724 74.408 374.524 74.752 375.532 74.752C376.54 74.752 377.34 74.392 377.932 73.672C378.54 72.952 378.844 72.072 378.844 71.032C378.844 69.848 378.508 68.936 377.836 68.296C377.164 67.656 376.396 67.336 375.532 67.336ZM383.269 76V66.04H384.997V70.12H389.701V66.04H391.429V76H389.701V71.704H384.997V76H383.269ZM394.203 66.04H395.931V72.616L402.747 65.272V76H401.019V69.352L394.203 76.696V66.04ZM404.384 76L407.48 71.896C407.384 71.896 407.248 71.88 407.072 71.848C406.912 71.816 406.672 71.736 406.352 71.608C406.032 71.48 405.768 71.312 405.56 71.104C405.032 70.608 404.768 69.944 404.768 69.112C404.768 68.168 405.064 67.424 405.656 66.88C406.248 66.32 407.224 66.04 408.584 66.04H412.064V76H410.336V71.992H409.28L406.448 76H404.384ZM410.336 70.552V67.576H408.728C407.976 67.576 407.456 67.664 407.168 67.84C406.752 68.112 406.544 68.52 406.544 69.064C406.544 69.608 406.752 70.008 407.168 70.264C407.472 70.456 407.984 70.552 408.704 70.552H410.336Z" fill="white"/>
</svg>
